<svg width="25" height="19" viewBox="0 0 25 19" fill="none" xmlns="http://www.w3.org/2000/svg">
<path d="M21.5634 14.144L24.0368 18.2036C24.1872 18.4514 24.0102 18.77 23.7182 18.77H18.7737C18.4816 18.77 18.3025 18.4514 18.4551 18.2036L20.9285 14.144C21.0723 13.9051 21.4174 13.9051 21.5634 14.144Z" fill="#00B287"/>
<path d="M12.4311 14.144L14.9045 18.2036C15.0549 18.4514 14.8779 18.77 14.5859 18.77H9.6392C9.3471 18.77 9.1679 18.4514 9.3206 18.2036L11.7939 14.144C11.9377 13.9051 12.2851 13.9051 12.4311 14.144Z" fill="#00B287"/>
<path d="M3.2988 14.144L5.7699 18.2036C5.9204 18.4514 5.7434 18.77 5.4513 18.77H0.506828C0.214798 18.77 0.0356082 18.4514 0.188258 18.2036L2.6616 14.144C2.8054 13.9051 3.1528 13.9051 3.2988 14.144Z" fill="#00B287"/>
<path d="M7.8649 7.15967L10.3383 11.2193C10.4887 11.467 10.3117 11.7856 10.0197 11.7856H5.073C4.781 11.7856 4.6018 11.467 4.7544 11.2193L7.2278 7.15967C7.3716 6.92074 7.7189 6.92074 7.8649 7.15967Z" fill="#00B287"/>
<path d="M12.431 0.179197L14.9044 4.23879C15.0548 4.48657 14.8778 4.80514 14.5858 4.80514H9.6391C9.3471 4.80514 9.1679 4.48657 9.3205 4.23879L11.7939 0.179197C11.9377 -0.0597323 12.285 -0.0597323 12.431 0.179197Z" fill="#00B287"/>
<path d="M16.9972 7.15967L19.4706 11.2193C19.621 11.467 19.4441 11.7856 19.152 11.7856H14.2075C13.9155 11.7856 13.7363 11.467 13.8889 11.2193L16.3623 7.15967C16.5039 6.92074 16.8512 6.92074 16.9972 7.15967Z" fill="#00B287"/>
</svg>
