<svg width="93" height="14" viewBox="0 0 93 14" fill="none" xmlns="http://www.w3.org/2000/svg">
<g clip-path="url(#clip0_9939_2)">
<path fill-rule="evenodd" clip-rule="evenodd" d="M7.24438 0C7.76679 0 8.24875 0.271746 8.50577 0.711217L10.27 3.72787L13.318 4.30406C13.849 4.40444 14.2779 4.78235 14.4302 5.28403C14.5824 5.78571 14.4327 6.32757 14.0419 6.68916L11.7237 8.83429L12.26 12.3986C12.3378 12.9156 12.1111 13.4315 11.6722 13.7366C11.2332 14.0416 10.6549 14.0851 10.1724 13.8494L7.24438 12.4188L4.31636 13.8494C3.83382 14.0851 3.25557 14.0416 2.8166 13.7366C2.37763 13.4315 2.15099 12.9156 2.22879 12.3986L2.76509 8.83429L0.446822 6.68916C0.0560427 6.32757 -0.0936678 5.78571 0.0585983 5.28403C0.210864 4.78235 0.639734 4.40444 1.17073 4.30406L4.21874 3.72787L5.98299 0.711217C6.24001 0.271746 6.72197 0 7.24438 0Z" fill="black"/>
</g>
<g clip-path="url(#clip1_9939_2)">
<path fill-rule="evenodd" clip-rule="evenodd" d="M26.2444 0C26.7668 0 27.2487 0.271746 27.5058 0.711217L29.27 3.72787L32.318 4.30406C32.849 4.40444 33.2779 4.78235 33.4302 5.28403C33.5824 5.78571 33.4327 6.32757 33.0419 6.68916L30.7237 8.83429L31.26 12.3986C31.3378 12.9156 31.1111 13.4315 30.6722 13.7366C30.2332 14.0416 29.6549 14.0851 29.1724 13.8494L26.2444 12.4188L23.3164 13.8494C22.8338 14.0851 22.2556 14.0416 21.8166 13.7366C21.3776 13.4315 21.151 12.9156 21.2288 12.3986L21.7651 8.83429L19.4468 6.68916C19.056 6.32757 18.9063 5.78571 19.0586 5.28403C19.2109 4.78235 19.6397 4.40444 20.1707 4.30406L23.2187 3.72787L24.983 0.711217C25.24 0.271746 25.722 0 26.2444 0Z" fill="black"/>
</g>
<g clip-path="url(#clip2_9939_2)">
<path fill-rule="evenodd" clip-rule="evenodd" d="M46.2444 0C46.7668 0 47.2487 0.271746 47.5058 0.711217L49.27 3.72787L52.318 4.30406C52.849 4.40444 53.2779 4.78235 53.4302 5.28403C53.5824 5.78571 53.4327 6.32757 53.0419 6.68916L50.7237 8.83429L51.26 12.3986C51.3378 12.9156 51.1111 13.4315 50.6722 13.7366C50.2332 14.0416 49.6549 14.0851 49.1724 13.8494L46.2444 12.4188L43.3164 13.8494C42.8338 14.0851 42.2556 14.0416 41.8166 13.7366C41.3776 13.4315 41.151 12.9156 41.2288 12.3986L41.7651 8.83429L39.4468 6.68916C39.056 6.32757 38.9063 5.78571 39.0586 5.28403C39.2109 4.78235 39.6397 4.40444 40.1707 4.30406L43.2187 3.72787L44.983 0.711217C45.24 0.271746 45.722 0 46.2444 0Z" fill="black"/>
</g>
<g clip-path="url(#clip3_9939_2)">
<path fill-rule="evenodd" clip-rule="evenodd" d="M65.2444 0C65.7668 0 66.2487 0.271746 66.5058 0.711217L68.27 3.72787L71.318 4.30406C71.849 4.40444 72.2779 4.78235 72.4302 5.28403C72.5824 5.78571 72.4327 6.32757 72.0419 6.68916L69.7237 8.83429L70.26 12.3986C70.3378 12.9156 70.1111 13.4315 69.6722 13.7366C69.2332 14.0416 68.6549 14.0851 68.1724 13.8494L65.2444 12.4188L62.3164 13.8494C61.8338 14.0851 61.2556 14.0416 60.8166 13.7366C60.3776 13.4315 60.151 12.9156 60.2288 12.3986L60.7651 8.83429L58.4468 6.68916C58.056 6.32757 57.9063 5.78571 58.0586 5.28403C58.2109 4.78235 58.6397 4.40444 59.1707 4.30406L62.2187 3.72787L63.983 0.711217C64.24 0.271746 64.722 0 65.2444 0Z" fill="black"/>
</g>
<g clip-path="url(#clip4_9939_2)">
<path fill-rule="evenodd" clip-rule="evenodd" d="M89.1377 7.71589C88.7586 8.05478 88.5769 8.56269 88.6552 9.06516L89.19 12.4985C89.1823 12.4971 89.176 12.495 89.1715 12.4928L86.1402 11.0623C85.9375 10.9666 85.7188 10.9188 85.5 10.9188V1.5C85.5151 1.5 85.5265 1.503 85.5335 1.50576L87.3493 4.50477C87.5716 4.87199 87.9406 5.12636 88.363 5.20347L91.3405 5.74715L89.1377 7.71589ZM86.8059 0.711217L88.6324 3.72787L91.788 4.30406C92.3377 4.40444 92.7817 4.78234 92.9393 5.28403C93.097 5.78571 92.942 6.32757 92.5374 6.68916L90.1373 8.83429L90.6926 12.3986C90.7731 12.9156 90.5385 13.4315 90.084 13.7366C89.6296 14.0416 89.0309 14.0851 88.5313 13.8494L85.5 12.4188L82.4687 13.8494C81.9691 14.0851 81.3704 14.0416 80.916 13.7366C80.4615 13.4315 80.2269 12.9156 80.3074 12.3986L80.8626 8.83429L78.4626 6.68916C78.058 6.32757 77.903 5.78571 78.0607 5.28403C78.2183 4.78234 78.6623 4.40444 79.212 4.30406L82.3676 3.72787L84.1941 0.711217C84.4602 0.271746 84.9592 0 85.5 0C86.0408 0 86.5398 0.271746 86.8059 0.711217Z" fill="black"/>
</g>
<defs>
<clipPath id="clip0_9939_2">
<rect width="15" height="14" fill="white"/>
</clipPath>
<clipPath id="clip1_9939_2">
<rect width="15" height="14" fill="white" transform="translate(19)"/>
</clipPath>
<clipPath id="clip2_9939_2">
<rect width="15" height="14" fill="white" transform="translate(39)"/>
</clipPath>
<clipPath id="clip3_9939_2">
<rect width="15" height="14" fill="white" transform="translate(58)"/>
</clipPath>
<clipPath id="clip4_9939_2">
<rect width="15" height="14" fill="white" transform="translate(78)"/>
</clipPath>
</defs>
</svg>
